<?xml version="1.0" encoding="UTF-8" standalone="no"?>
<svg
   xmlns:dc="http://purl.org/dc/elements/1.1/"
   xmlns:cc="http://creativecommons.org/ns#"
   xmlns:rdf="http://www.w3.org/1999/02/22-rdf-syntax-ns#"
   xmlns:svg="http://www.w3.org/2000/svg"
   xmlns="http://www.w3.org/2000/svg"
   xmlns:sodipodi="http://sodipodi.sourceforge.net/DTD/sodipodi-0.dtd"
   xmlns:inkscape="http://www.inkscape.org/namespaces/inkscape"
   id="svg"
   width="86.5"
   height="81.498291"
   version="1.1"
   inkscape:version="0.48.4 r9939"
   sodipodi:docname="dotsgame.svg">
  <metadata
     id="metadata45">
    <rdf:RDF>
      <cc:Work
         rdf:about="">
        <dc:format>image/svg+xml</dc:format>
        <dc:type
           rdf:resource="http://purl.org/dc/dcmitype/StillImage" />
      </cc:Work>
    </rdf:RDF>
  </metadata>
  <defs
     id="defs43" />
  <sodipodi:namedview
     pagecolor="#ffffff"
     bordercolor="#666666"
     borderopacity="1"
     objecttolerance="10"
     gridtolerance="10"
     guidetolerance="10"
     inkscape:pageopacity="0"
     inkscape:pageshadow="2"
     inkscape:window-width="640"
     inkscape:window-height="480"
     id="namedview41"
     showgrid="false"
     inkscape:zoom="0.77617302"
     inkscape:cx="224.43308"
     inkscape:cy="-62.344071"
     inkscape:window-x="575"
     inkscape:window-y="190"
     inkscape:window-maximized="0"
     inkscape:current-layer="svg"
     fit-margin-top="0"
     fit-margin-left="0"
     fit-margin-right="0"
     fit-margin-bottom="0" />
  <circle
     cx="60"
     cy="227"
     r="25"
     id="circle13"
     sodipodi:cx="60"
     sodipodi:cy="227"
     sodipodi:rx="25"
     sodipodi:ry="25"
     style="opacity:0"
     transform="translate(-0.35795494,-0.0905593)" />
  <circle
     cx="38"
     cy="74"
     r="25"
     id="circle19"
     sodipodi:cx="38"
     sodipodi:cy="74"
     sodipodi:rx="25"
     sodipodi:ry="25"
     style="opacity:0"
     transform="translate(-0.35795494,-0.0905593)" />
  <circle
     cx="408"
     cy="264"
     r="25"
     id="circle25"
     sodipodi:cx="408"
     sodipodi:cy="264"
     sodipodi:rx="25"
     sodipodi:ry="25"
     style="opacity:0"
     transform="translate(-0.35795494,-0.0905593)" />
  <g
     id="g3006"
     transform="matrix(0.71417577,0,0,0.71417577,-38.704695,-40.708019)">
    <circle
       transform="matrix(0.33662294,0,0,0.33662294,149.41927,-49.281559)"
       sodipodi:ry="15"
       sodipodi:rx="15"
       sodipodi:cy="400"
       sodipodi:cx="20"
       id="0"
       r="15"
       cy="400"
       cx="20"
       style="fill:#00ff00"
       d="m 35,400 c 0,8.28427 -6.715729,15 -15,15 -8.284271,0 -15,-6.71573 -15,-15 0,-8.28427 6.715729,-15 15,-15 8.284271,0 15,6.71573 15,15 z" />
    <circle
       style="opacity:0"
       transform="matrix(0.33662294,0,0,0.33662294,35.951664,37.812493)"
       sodipodi:ry="25"
       sodipodi:rx="25"
       sodipodi:cy="143"
       sodipodi:cx="336"
       id="circle4"
       r="25"
       cy="143"
       cx="336"
       d="m 361,143 c 0,13.80712 -11.19288,25 -25,25 -13.80712,0 -25,-11.19288 -25,-25 0,-13.80712 11.19288,-25 25,-25 13.80712,0 25,11.19288 25,25 z" />
    <circle
       transform="matrix(0.33662294,0,0,0.33662294,104.64556,-27.814717)"
       sodipodi:ry="15"
       sodipodi:rx="15"
       sodipodi:cy="400"
       sodipodi:cx="20"
       id="1"
       r="15"
       cy="400"
       cx="20"
       style="fill:#ff0000"
       d="m 35,400 c 0,8.28427 -6.715729,15 -15,15 -8.284271,0 -15,-6.71573 -15,-15 0,-8.28427 6.715729,-15 15,-15 8.284271,0 15,6.71573 15,15 z" />
    <circle
       style="opacity:0"
       transform="matrix(0.33662294,0,0,0.33662294,35.951664,37.812493)"
       sodipodi:ry="25"
       sodipodi:rx="25"
       sodipodi:cy="224"
       sodipodi:cx="177"
       id="circle7"
       r="25"
       cy="224"
       cx="177"
       d="m 202,224 c 0,13.80712 -11.19288,25 -25,25 -13.80712,0 -25,-11.19288 -25,-25 0,-13.80712 11.19288,-25 25,-25 13.80712,0 25,11.19288 25,25 z" />
    <circle
       transform="matrix(0.33662294,0,0,0.33662294,95.445489,19.412341)"
       sodipodi:ry="15"
       sodipodi:rx="15"
       sodipodi:cy="400"
       sodipodi:cx="20"
       id="2"
       r="15"
       cy="400"
       cx="20"
       style="fill:#000000"
       d="m 35,400 c 0,8.28427 -6.715729,15 -15,15 -8.284271,0 -15,-6.71573 -15,-15 0,-8.28427 6.715729,-15 15,-15 8.284271,0 15,6.71573 15,15 z" />
    <circle
       style="opacity:0"
       transform="matrix(0.33662294,0,0,0.33662294,35.951664,37.812493)"
       sodipodi:ry="25"
       sodipodi:rx="25"
       sodipodi:cy="334"
       sodipodi:cx="219"
       id="circle10"
       r="25"
       cy="334"
       cx="219"
       d="m 244,334 c 0,13.80712 -11.19288,25 -25,25 -13.80712,0 -25,-11.19288 -25,-25 0,-13.80712 11.19288,-25 25,-25 13.80712,0 25,11.19288 25,25 z" />
    <circle
       transform="matrix(0.33662294,0,0,0.33662294,52.5118,-8.1878867)"
       sodipodi:ry="15"
       sodipodi:rx="15"
       sodipodi:cy="400"
       sodipodi:cx="20"
       id="3"
       r="15"
       cy="400"
       cx="20"
       style="fill:#000000"
       d="m 35,400 c 0,8.28427 -6.715729,15 -15,15 -8.284271,0 -15,-6.71573 -15,-15 0,-8.28427 6.715729,-15 15,-15 8.284271,0 15,6.71573 15,15 z" />
    <circle
       transform="matrix(0.33662294,0,0,0.33662294,60.4852,-69.521727)"
       sodipodi:ry="15"
       sodipodi:rx="15"
       sodipodi:cy="400"
       sodipodi:cx="20"
       id="4"
       r="15"
       cy="400"
       cx="20"
       style="fill:#000000"
       d="m 35,400 c 0,8.28427 -6.715729,15 -15,15 -8.284271,0 -15,-6.71573 -15,-15 0,-8.28427 6.715729,-15 15,-15 8.284271,0 15,6.71573 15,15 z" />
    <circle
       style="opacity:0"
       transform="matrix(0.33662294,0,0,0.33662294,35.951664,37.812493)"
       sodipodi:ry="25"
       sodipodi:rx="25"
       sodipodi:cy="341"
       sodipodi:cx="389"
       id="circle16"
       r="25"
       cy="341"
       cx="389"
       d="m 414,341 c 0,13.80712 -11.19288,25 -25,25 -13.80712,0 -25,-11.19288 -25,-25 0,-13.80712 11.19288,-25 25,-25 13.80712,0 25,11.19288 25,25 z" />
    <circle
       transform="matrix(0.33662294,0,0,0.33662294,153.71264,-5.1211945)"
       sodipodi:ry="15"
       sodipodi:rx="15"
       sodipodi:cy="400"
       sodipodi:cx="20"
       id="5"
       r="15"
       cy="400"
       cx="20"
       style="fill:#000000"
       d="m 35,400 c 0,8.28427 -6.715729,15 -15,15 -8.284271,0 -15,-6.71573 -15,-15 0,-8.28427 6.715729,-15 15,-15 8.284271,0 15,6.71573 15,15 z" />
    <circle
       transform="matrix(0.33662294,0,0,0.33662294,143.89922,20.025679)"
       sodipodi:ry="15"
       sodipodi:rx="15"
       sodipodi:cy="400"
       sodipodi:cx="20"
       id="6"
       r="15"
       cy="400"
       cx="20"
       style="fill:#000000"
       d="m 35,400 c 0,8.28427 -6.715729,15 -15,15 -8.284271,0 -15,-6.71573 -15,-15 0,-8.28427 6.715729,-15 15,-15 8.284271,0 15,6.71573 15,15 z" />
    <circle
       style="opacity:0"
       transform="matrix(0.33662294,0,0,0.33662294,35.951664,37.812493)"
       sodipodi:ry="25"
       sodipodi:rx="25"
       sodipodi:cy="94"
       sodipodi:cx="214"
       id="circle22"
       r="25"
       cy="94"
       cx="214"
       d="m 239,94 c 0,13.80712 -11.19288,25 -25,25 -13.80712,0 -25,-11.19288 -25,-25 0,-13.807119 11.19288,-25 25,-25 13.80712,0 25,11.192881 25,25 z" />
    <circle
       transform="matrix(0.33662294,0,0,0.33662294,161.0727,-60.934991)"
       sodipodi:ry="15"
       sodipodi:rx="15"
       sodipodi:cy="400"
       sodipodi:cx="20"
       id="7"
       r="15"
       cy="400"
       cx="20"
       style="fill:#000000"
       d="m 35,400 c 0,8.28427 -6.715729,15 -15,15 -8.284271,0 -15,-6.71573 -15,-15 0,-8.28427 6.715729,-15 15,-15 8.284271,0 15,6.71573 15,15 z" />
    <circle
       transform="matrix(0.33662294,0,0,0.33662294,83.17872,-52.961588)"
       sodipodi:ry="15"
       sodipodi:rx="15"
       sodipodi:cy="400"
       sodipodi:cx="20"
       id="8"
       r="15"
       cy="400"
       cx="20"
       style="fill:#000000"
       d="m 35,400 c 0,8.28427 -6.715729,15 -15,15 -8.284271,0 -15,-6.71573 -15,-15 0,-8.28427 6.715729,-15 15,-15 8.284271,0 15,6.71573 15,15 z" />
    <circle
       style="opacity:0"
       transform="matrix(0.33662294,0,0,0.33662294,35.951664,37.812493)"
       sodipodi:ry="25"
       sodipodi:rx="25"
       sodipodi:cy="266"
       sodipodi:cx="133"
       id="circle28"
       r="25"
       cy="266"
       cx="133"
       d="m 158,266 c 0,13.80712 -11.19288,25 -25,25 -13.80712,0 -25,-11.19288 -25,-25 0,-13.80712 11.19288,-25 25,-25 13.80712,0 25,11.19288 25,25 z" />
    <circle
       transform="matrix(0.33662294,0,0,0.33662294,112.00563,-62.775005)"
       sodipodi:ry="15"
       sodipodi:rx="15"
       sodipodi:cy="400"
       sodipodi:cx="20"
       id="9"
       r="15"
       cy="400"
       cx="20"
       style="fill:#000000"
       d="m 35,400 c 0,8.28427 -6.715729,15 -15,15 -8.284271,0 -15,-6.71573 -15,-15 0,-8.28427 6.715729,-15 15,-15 8.284271,0 15,6.71573 15,15 z" />
    <circle
       style="opacity:0"
       transform="matrix(0.33662294,0,0,0.33662294,35.951664,37.812493)"
       sodipodi:ry="25"
       sodipodi:rx="25"
       sodipodi:cy="119"
       sodipodi:cx="380"
       id="circle31"
       r="25"
       cy="119"
       cx="380"
       d="m 405,119 c 0,13.80712 -11.19288,25 -25,25 -13.80712,0 -25,-11.19288 -25,-25 0,-13.80712 11.19288,-25 25,-25 13.80712,0 25,11.19288 25,25 z" />
    <circle
       transform="matrix(0.33662294,0,0,0.33662294,78.885351,-8.1878867)"
       sodipodi:ry="15"
       sodipodi:rx="15"
       sodipodi:cy="400"
       sodipodi:cx="20"
       id="10"
       r="15"
       cy="400"
       cx="20"
       style="fill:#000000"
       d="m 35,400 c 0,8.28427 -6.715729,15 -15,15 -8.284271,0 -15,-6.71573 -15,-15 0,-8.28427 6.715729,-15 15,-15 8.284271,0 15,6.71573 15,15 z" />
    <circle
       style="opacity:0"
       transform="matrix(0.33662294,0,0,0.33662294,35.951664,37.812493)"
       sodipodi:ry="25"
       sodipodi:rx="25"
       sodipodi:cy="82"
       sodipodi:cx="119"
       id="circle34"
       r="25"
       cy="82"
       cx="119"
       d="m 144,82 c 0,13.807119 -11.19288,25 -25,25 -13.80712,0 -25,-11.192881 -25,-25 0,-13.807119 11.19288,-25 25,-25 13.80712,0 25,11.192881 25,25 z" />
    <circle
       transform="matrix(0.33662294,0,0,0.33662294,64.165229,-27.814717)"
       sodipodi:ry="15"
       sodipodi:rx="15"
       sodipodi:cy="400"
       sodipodi:cx="20"
       id="11"
       r="15"
       cy="400"
       cx="20"
       style="fill:#000000"
       d="m 35,400 c 0,8.28427 -6.715729,15 -15,15 -8.284271,0 -15,-6.71573 -15,-15 0,-8.28427 6.715729,-15 15,-15 8.284271,0 15,6.71573 15,15 z" />
    <circle
       style="opacity:0"
       transform="matrix(0.33662294,0,0,0.33662294,35.951664,37.812493)"
       sodipodi:ry="25"
       sodipodi:rx="25"
       sodipodi:cy="371"
       sodipodi:cx="309"
       id="circle37"
       r="25"
       cy="371"
       cx="309"
       d="m 334,371 c 0,13.80712 -11.19288,25 -25,25 -13.80712,0 -25,-11.19288 -25,-25 0,-13.80712 11.19288,-25 25,-25 13.80712,0 25,11.19288 25,25 z" />
  </g>
  <line
     id="line39"
     x1="-0.35795495"
     y1="-0.090559304"
     x2="-0.35795495"
     y2="-0.090559304" />
</svg>
