<svg xmlns="http://www.w3.org/2000/svg" id="circuitDiagram" width="300px" height="300px">
		<g style="cursor: pointer;"><line x1="280" x2="20" y1="280" y2="280" stroke-width="4" stroke="#0000ff"></line><line x1="236.66666666666666" x2="63.333333333333336" y1="280" y2="280" stroke-width="0" stroke="white" stroke-opacity="0"></line></g><g style="cursor: pointer;"><path d="M 20 20 L 110 20 L 116.66666666666667 7.538778195993704 L 130 32.4612218040063 L 143.33333333333331 7.538778195993704 L 156.66666666666666 32.4612218040063 L 170 7.538778195993704 L 183.33333333333334 32.4612218040063 L 190 20 L 280 20" stroke="url(#resistor2gradient)" stroke-width="4" fill="white" fill-opacity="0" style="cursor: pointer;"></path><line x1="63.333333333333336" x2="236.66666666666666" y1="20" y2="20" stroke-width="45" stroke="white" stroke-opacity="0"></line></g><g style="cursor: pointer;"><path d="M 20 280 L 20 162 M 7.975913484678969 162 L 32.02408651532103 162 M -4.048173030642062 154 L 44.04817303064206 154 M 7.975913484678969 146 L 32.02408651532103 146 M -4.048173030642062 138 L 44.04817303064206 138 M 20 138 L 20 20" stroke="url(#batterygradient)" stroke-width="4" fill="white" fill-opacity="0"></path><line x1="20" x2="20" y1="236.66666666666666" y2="63.333333333333336" stroke-width="75" stroke="white" stroke-opacity="0"></line></g><g style="cursor: pointer;"><path d="M 280 20 L 280 144 M 297.7639320225002 144 L 262.2360679774998 144 M 297.7639320225002 156 L 262.2360679774998 156 M 280 156 L 280 280" stroke="url(#capacitor1gradient)" stroke-width="4" fill="white" fill-opacity="0"></path><line x1="280" x2="280" y1="63.333333333333336" y2="236.66666666666666" stroke-width="60" stroke="white" stroke-opacity="0"></line></g><circle r="10px" cx="20" cy="20" fill="#cc0033" style="cursor: pointer;"></circle><circle r="10px" cx="280" cy="20" fill="#0000ff" style="cursor: pointer;"></circle><circle r="10px" cx="280" cy="280" fill="#0000ff" style="cursor: pointer;"></circle><circle r="2px" cx="20" cy="280" fill="#0000ff"></circle><defs><linearGradient id="capacitor1gradient" x1="0.5" y1="0.47692307692307695" x2="0.5" y2="0.5230769230769231"><stop class="firstStop" offset="0%" stop-color="#0000ff"></stop><stop class="lastStop" offset="100%" stop-color="#0000ff"></stop></linearGradient></defs><defs><linearGradient id="batterygradient" x1="0.5" y1="0.5461538461538461" x2="0.5" y2="0.45384615384615384"><stop class="firstStop" offset="0%" stop-color="#0000ff"></stop><stop class="lastStop" offset="100%" stop-color="#cc0033"></stop></linearGradient></defs><defs><linearGradient id="resistor2gradient" x1="0.34615384615384615" y1="0.5" x2="0.6538461538461539" y2="0.5"><stop class="firstStop" offset="0%" stop-color="#cc0033"></stop><stop class="lastStop" offset="100%" stop-color="#0000ff"></stop></linearGradient></defs></svg>
